<?xml version="1.0" standalone="no"?>
<!DOCTYPE svg PUBLIC "-//W3C//DTD SVG 20010904//EN"
 "http://www.w3.org/TR/2001/REC-SVG-20010904/DTD/svg10.dtd">
<svg version="1.0" xmlns="http://www.w3.org/2000/svg"
 width="1024.000000pt" height="1024.000000pt" viewBox="0 0 1024.000000 1024.000000"
 preserveAspectRatio="xMidYMid meet">

<g transform="translate(0.000000,1024.000000) scale(0.100000,-0.100000)"
fill="#000000" stroke="none">
<path d="M6373 8479 c-78 -16 -93 -56 -93 -244 l0 -145 -1154 0 -1154 0 -3
160 -4 160 -32 32 c-27 27 -41 32 -91 36 -57 4 -62 3 -98 -31 l-39 -35 0 -160
0 -160 -240 -4 c-218 -4 -246 -6 -305 -27 -173 -60 -319 -187 -394 -343 -24
-51 -51 -122 -58 -158 -10 -52 -13 -423 -13 -1895 l0 -1830 27 -76 c51 -144
144 -268 259 -347 l46 -31 6 72 c4 40 13 98 21 129 l15 56 -44 67 c-75 112
-75 108 -75 637 l0 468 1020 0 1020 0 0 -195 0 -195 130 0 130 0 0 195 0 195
1025 0 1025 0 0 -465 c0 -445 -1 -468 -21 -527 -21 -64 -44 -103 -86 -149 -24
-26 -24 -27 -8 -82 9 -30 19 -89 23 -131 l7 -76 55 37 c120 80 206 195 258
342 l27 76 0 1850 0 1850 -29 89 c-56 170 -182 317 -340 395 -121 60 -184 71
-433 71 l-213 0 0 158 c0 126 -3 162 -16 180 -28 41 -95 63 -151 51z m-2669
-796 c3 -84 10 -161 16 -173 29 -54 132 -78 190 -43 47 27 54 55 57 218 l3
150 1154 0 1154 0 4 -155 c3 -93 9 -164 17 -177 26 -50 125 -70 180 -37 50 30
56 48 61 213 l5 155 218 -2 c237 -3 276 -10 352 -62 57 -39 119 -109 152 -172
28 -53 28 -53 31 -280 l3 -228 -2176 0 -2176 0 3 223 3 222 39 73 c64 119 184
209 295 221 31 3 136 6 233 6 l177 0 5 -152z m1286 -1728 l0 -885 -1020 0
-1020 0 0 885 0 885 1020 0 1020 0 0 -885z m2310 0 l0 -885 -1025 0 -1025 0 0
885 0 885 1025 0 1025 0 0 -885z"/>
<path d="M6393 6088 l-333 -332 -127 126 c-105 103 -135 127 -166 133 -95 18
-182 -85 -145 -173 16 -37 330 -368 369 -388 36 -18 92 -18 127 0 33 18 765
752 781 783 28 55 -1 138 -58 168 -17 8 -49 15 -73 15 l-42 0 -333 -332z"/>
<path d="M4972 4210 c-216 -57 -386 -221 -452 -435 -26 -86 -28 -240 -5 -330
38 -143 148 -300 265 -375 77 -49 178 -87 263 -99 259 -36 531 113 647 354 49
102 63 177 58 307 -6 123 -29 200 -94 305 -140 226 -425 340 -682 273z m278
-257 c95 -34 174 -107 219 -203 22 -47 26 -69 26 -150 0 -82 -4 -103 -26 -150
-55 -116 -161 -197 -287 -220 -162 -29 -326 60 -400 218 -23 49 -27 70 -27
152 0 83 3 102 28 151 89 182 284 267 467 202z"/>
<path d="M3611 3880 c-74 -16 -164 -64 -226 -122 -259 -241 -203 -644 111
-799 75 -38 92 -42 176 -47 164 -8 286 34 388 136 93 93 140 208 140 342 0
222 -121 403 -315 470 -69 24 -207 34 -274 20z m219 -273 c171 -88 166 -341
-9 -429 -122 -62 -259 -17 -322 104 -70 136 8 311 155 349 48 12 126 2 176
-24z"/>
<path d="M6465 3883 c-112 -15 -202 -60 -282 -141 -191 -194 -186 -516 11
-700 101 -94 196 -131 336 -132 146 0 273 53 364 151 87 94 125 192 126 324 0
139 -44 246 -149 357 -110 117 -241 163 -406 141z m173 -272 c166 -85 176
-328 18 -426 -44 -27 -58 -30 -126 -30 -68 0 -82 3 -126 30 -181 113 -137 392
71 446 45 12 118 3 163 -20z"/>
<path d="M4771 2875 c-246 -55 -443 -181 -587 -378 -119 -161 -174 -335 -174
-552 0 -85 4 -108 23 -145 36 -71 81 -100 173 -111 46 -6 453 -9 974 -7 851 3
897 4 930 22 49 26 79 55 103 101 20 35 22 55 22 175 -1 154 -14 217 -75 346
-123 264 -331 446 -606 531 -88 27 -93 27 -404 30 -244 2 -329 -1 -379 -12z
m625 -246 c197 -27 367 -133 474 -297 69 -105 111 -217 118 -314 l5 -78 -863
0 -863 0 6 83 c19 294 275 563 579 607 82 12 457 11 544 -1z"/>
<path d="M3470 2833 c-198 -33 -398 -182 -487 -363 -55 -111 -73 -181 -80
-315 -7 -132 4 -181 54 -236 60 -66 82 -69 515 -69 l378 0 0 103 c0 56 3 112
6 125 l6 22 -352 0 -352 0 4 89 c3 74 9 99 36 153 41 84 129 168 219 211 l68
32 193 3 c147 3 212 0 271 -12 43 -9 80 -16 83 -16 3 0 17 17 30 38 14 20 47
61 73 90 l47 52 -77 36 c-117 54 -181 64 -410 62 -110 0 -211 -3 -225 -5z"/>
<path d="M6310 2830 c-64 -13 -181 -57 -209 -79 l-25 -19 42 -47 c23 -26 54
-67 69 -90 l26 -42 46 15 c36 13 96 16 276 16 l230 1 68 -32 c89 -43 166 -116
213 -206 34 -64 38 -82 42 -159 l4 -88 -352 0 -352 0 6 -31 c3 -17 6 -74 6
-125 l0 -94 370 0 c233 0 388 4 421 11 68 15 129 74 149 142 16 60 8 235 -15
321 -52 189 -185 355 -353 440 -125 63 -155 69 -397 72 -121 2 -240 -1 -265
-6z"/>
</g>
</svg>
