<?xml version="1.0" encoding="UTF-8"?>
<svg xmlns="http://www.w3.org/2000/svg" xmlns:xlink="http://www.w3.org/1999/xlink" width="16px" height="16px" viewBox="0 0 16 16" version="1.1">
<g id="surface1">
<path style=" stroke:none;fill-rule:nonzero;fill:rgb(0%,0%,0%);fill-opacity:1;" d="M 9.957031 2.75 C 9.835938 2.777344 9.8125 2.839844 9.8125 3.132812 L 9.8125 3.359375 L 6.207031 3.359375 L 6.203125 3.109375 L 6.195312 2.859375 L 6.144531 2.808594 C 6.101562 2.765625 6.082031 2.757812 6.003906 2.753906 C 5.914062 2.746094 5.90625 2.75 5.851562 2.800781 L 5.789062 2.855469 L 5.789062 3.355469 L 5.414062 3.363281 C 5.074219 3.367188 5.03125 3.371094 4.9375 3.40625 C 4.667969 3.5 4.4375 3.695312 4.320312 3.941406 C 4.285156 4.019531 4.242188 4.132812 4.230469 4.1875 C 4.214844 4.269531 4.210938 4.847656 4.210938 7.148438 L 4.210938 10.007812 L 4.253906 10.125 C 4.332031 10.351562 4.476562 10.546875 4.65625 10.667969 L 4.730469 10.71875 L 4.738281 10.605469 C 4.746094 10.542969 4.757812 10.453125 4.773438 10.402344 L 4.796875 10.316406 L 4.726562 10.210938 C 4.609375 10.035156 4.609375 10.042969 4.609375 9.214844 L 4.609375 8.484375 L 7.796875 8.484375 L 7.796875 9.09375 L 8.203125 9.09375 L 8.203125 8.484375 L 11.40625 8.484375 L 11.40625 9.210938 C 11.40625 9.90625 11.40625 9.941406 11.375 10.035156 C 11.339844 10.132812 11.304688 10.195312 11.238281 10.265625 C 11.203125 10.308594 11.203125 10.308594 11.226562 10.394531 C 11.242188 10.441406 11.257812 10.535156 11.261719 10.601562 L 11.273438 10.71875 L 11.359375 10.660156 C 11.546875 10.535156 11.679688 10.355469 11.761719 10.125 L 11.804688 10.007812 L 11.804688 4.226562 L 11.757812 4.085938 C 11.671875 3.820312 11.476562 3.59375 11.226562 3.46875 C 11.039062 3.375 10.941406 3.359375 10.550781 3.359375 L 10.21875 3.359375 L 10.21875 3.113281 C 10.21875 2.914062 10.214844 2.859375 10.195312 2.832031 C 10.148438 2.765625 10.046875 2.734375 9.957031 2.75 Z M 5.789062 3.996094 C 5.792969 4.125 5.804688 4.246094 5.8125 4.265625 C 5.859375 4.351562 6.019531 4.386719 6.109375 4.332031 C 6.183594 4.289062 6.195312 4.246094 6.199219 3.992188 L 6.203125 3.757812 L 9.808594 3.757812 L 9.816406 4 C 9.820312 4.144531 9.828125 4.257812 9.84375 4.277344 C 9.882812 4.355469 10.039062 4.386719 10.125 4.335938 C 10.203125 4.289062 10.210938 4.257812 10.21875 4 L 10.226562 3.757812 L 10.566406 3.761719 C 10.9375 3.765625 11 3.777344 11.117188 3.859375 C 11.207031 3.921875 11.304688 4.03125 11.355469 4.128906 C 11.398438 4.210938 11.398438 4.210938 11.402344 4.566406 L 11.40625 4.921875 L 4.609375 4.921875 L 4.617188 4.226562 L 4.679688 4.113281 C 4.777344 3.925781 4.964844 3.785156 5.140625 3.765625 C 5.1875 3.761719 5.351562 3.757812 5.503906 3.757812 L 5.78125 3.757812 Z M 7.796875 6.695312 L 7.796875 8.078125 L 4.609375 8.078125 L 4.609375 5.3125 L 7.796875 5.3125 Z M 11.40625 6.695312 L 11.40625 8.078125 L 8.203125 8.078125 L 8.203125 5.3125 L 11.40625 5.3125 Z M 11.40625 6.695312 "/>
<path style=" stroke:none;fill-rule:nonzero;fill:rgb(0%,0%,0%);fill-opacity:1;" d="M 9.988281 6.488281 L 9.46875 7.007812 L 9.269531 6.808594 C 9.105469 6.648438 9.058594 6.609375 9.011719 6.601562 C 8.863281 6.574219 8.726562 6.734375 8.785156 6.871094 C 8.808594 6.929688 9.300781 7.445312 9.359375 7.476562 C 9.417969 7.507812 9.503906 7.507812 9.558594 7.476562 C 9.609375 7.449219 10.753906 6.304688 10.78125 6.253906 C 10.824219 6.167969 10.777344 6.039062 10.6875 5.992188 C 10.664062 5.980469 10.613281 5.96875 10.574219 5.96875 L 10.507812 5.96875 Z M 9.988281 6.488281 "/>
<path style=" stroke:none;fill-rule:nonzero;fill:rgb(0%,0%,0%);fill-opacity:1;" d="M 7.769531 9.421875 C 7.429688 9.511719 7.164062 9.765625 7.0625 10.101562 C 7.023438 10.234375 7.019531 10.476562 7.054688 10.617188 C 7.113281 10.839844 7.285156 11.085938 7.46875 11.203125 C 7.589844 11.28125 7.746094 11.339844 7.878906 11.359375 C 8.285156 11.414062 8.710938 11.179688 8.890625 10.804688 C 8.96875 10.644531 8.988281 10.527344 8.980469 10.324219 C 8.972656 10.132812 8.9375 10.011719 8.835938 9.847656 C 8.617188 9.496094 8.171875 9.316406 7.769531 9.421875 Z M 8.203125 9.824219 C 8.351562 9.875 8.476562 9.992188 8.546875 10.140625 C 8.578125 10.214844 8.585938 10.25 8.585938 10.375 C 8.585938 10.503906 8.578125 10.535156 8.546875 10.609375 C 8.460938 10.789062 8.292969 10.917969 8.097656 10.953125 C 7.84375 11 7.585938 10.859375 7.472656 10.613281 C 7.4375 10.535156 7.429688 10.503906 7.429688 10.375 C 7.429688 10.246094 7.433594 10.214844 7.472656 10.140625 C 7.613281 9.855469 7.917969 9.722656 8.203125 9.824219 Z M 8.203125 9.824219 "/>
<path style=" stroke:none;fill-rule:nonzero;fill:rgb(0%,0%,0%);fill-opacity:1;" d="M 5.640625 9.9375 C 5.527344 9.960938 5.386719 10.039062 5.289062 10.128906 C 4.882812 10.503906 4.972656 11.132812 5.460938 11.375 C 5.578125 11.4375 5.605469 11.441406 5.738281 11.449219 C 5.992188 11.460938 6.183594 11.398438 6.34375 11.238281 C 6.488281 11.09375 6.5625 10.914062 6.5625 10.703125 C 6.5625 10.355469 6.375 10.074219 6.070312 9.96875 C 5.960938 9.929688 5.746094 9.914062 5.640625 9.9375 Z M 5.984375 10.363281 C 6.25 10.5 6.242188 10.898438 5.96875 11.035156 C 5.78125 11.132812 5.566406 11.0625 5.46875 10.871094 C 5.359375 10.660156 5.480469 10.386719 5.710938 10.328125 C 5.785156 10.308594 5.90625 10.324219 5.984375 10.363281 Z M 5.984375 10.363281 "/>
<path style=" stroke:none;fill-rule:nonzero;fill:rgb(0%,0%,0%);fill-opacity:1;" d="M 10.101562 9.933594 C 9.925781 9.957031 9.785156 10.027344 9.660156 10.152344 C 9.363281 10.457031 9.371094 10.960938 9.679688 11.246094 C 9.835938 11.394531 9.984375 11.453125 10.203125 11.453125 C 10.429688 11.453125 10.628906 11.371094 10.773438 11.21875 C 10.90625 11.070312 10.96875 10.917969 10.96875 10.710938 C 10.96875 10.492188 10.898438 10.328125 10.734375 10.152344 C 10.5625 9.96875 10.359375 9.898438 10.101562 9.933594 Z M 10.371094 10.359375 C 10.632812 10.492188 10.648438 10.871094 10.398438 11.023438 C 10.332031 11.066406 10.308594 11.070312 10.203125 11.070312 C 10.097656 11.070312 10.074219 11.066406 10.007812 11.023438 C 9.722656 10.847656 9.792969 10.410156 10.117188 10.328125 C 10.1875 10.308594 10.300781 10.320312 10.371094 10.359375 Z M 10.371094 10.359375 "/>
<path style=" stroke:none;fill-rule:nonzero;fill:rgb(0%,0%,0%);fill-opacity:1;" d="M 7.453125 11.507812 C 7.070312 11.59375 6.761719 11.789062 6.539062 12.097656 C 6.351562 12.351562 6.265625 12.621094 6.265625 12.960938 C 6.265625 13.09375 6.273438 13.128906 6.300781 13.1875 C 6.359375 13.296875 6.429688 13.34375 6.570312 13.359375 C 6.644531 13.371094 7.28125 13.375 8.09375 13.371094 C 9.421875 13.367188 9.496094 13.367188 9.546875 13.335938 C 9.625 13.296875 9.671875 13.25 9.707031 13.179688 C 9.738281 13.125 9.742188 13.09375 9.742188 12.90625 C 9.742188 12.664062 9.71875 12.566406 9.625 12.367188 C 9.433594 11.953125 9.109375 11.667969 8.679688 11.535156 C 8.539062 11.492188 8.53125 11.492188 8.046875 11.488281 C 7.664062 11.484375 7.53125 11.492188 7.453125 11.507812 Z M 8.429688 11.890625 C 8.738281 11.933594 9.003906 12.101562 9.171875 12.355469 C 9.28125 12.519531 9.34375 12.695312 9.355469 12.847656 L 9.363281 12.96875 L 6.667969 12.96875 L 6.675781 12.839844 C 6.707031 12.378906 7.105469 11.960938 7.582031 11.890625 C 7.710938 11.871094 8.296875 11.875 8.429688 11.890625 Z M 8.429688 11.890625 "/>
<path style=" stroke:none;fill-rule:nonzero;fill:rgb(0%,0%,0%);fill-opacity:1;" d="M 5.421875 11.574219 C 5.113281 11.625 4.800781 11.859375 4.660156 12.140625 C 4.574219 12.3125 4.546875 12.421875 4.535156 12.632812 C 4.523438 12.839844 4.542969 12.914062 4.621094 13 C 4.714844 13.105469 4.75 13.109375 5.425781 13.109375 L 6.015625 13.109375 L 6.015625 12.949219 C 6.015625 12.859375 6.019531 12.773438 6.023438 12.753906 L 6.035156 12.71875 L 4.933594 12.71875 L 4.941406 12.578125 C 4.945312 12.464844 4.953125 12.425781 4.996094 12.339844 C 5.0625 12.210938 5.199219 12.078125 5.339844 12.011719 L 5.445312 11.960938 L 5.746094 11.957031 C 5.976562 11.953125 6.078125 11.957031 6.171875 11.976562 C 6.238281 11.988281 6.296875 12 6.300781 12 C 6.304688 12 6.328125 11.972656 6.347656 11.941406 C 6.367188 11.910156 6.421875 11.84375 6.460938 11.800781 L 6.535156 11.71875 L 6.414062 11.664062 C 6.230469 11.578125 6.132812 11.5625 5.773438 11.566406 C 5.601562 11.566406 5.445312 11.570312 5.421875 11.574219 Z M 5.421875 11.574219 "/>
<path style=" stroke:none;fill-rule:nonzero;fill:rgb(0%,0%,0%);fill-opacity:1;" d="M 9.859375 11.578125 C 9.757812 11.597656 9.578125 11.667969 9.53125 11.703125 L 9.492188 11.730469 L 9.558594 11.804688 C 9.59375 11.84375 9.644531 11.910156 9.667969 11.945312 L 9.707031 12.011719 L 9.78125 11.988281 C 9.835938 11.96875 9.929688 11.960938 10.210938 11.960938 L 10.570312 11.960938 L 10.675781 12.011719 C 10.816406 12.078125 10.9375 12.191406 11.007812 12.332031 C 11.0625 12.433594 11.070312 12.460938 11.074219 12.582031 L 11.082031 12.71875 L 9.980469 12.71875 L 9.992188 12.765625 C 9.996094 12.792969 10 12.882812 10 12.960938 L 10 13.109375 L 10.578125 13.109375 C 10.941406 13.109375 11.183594 13.101562 11.234375 13.09375 C 11.34375 13.070312 11.4375 12.976562 11.46875 12.871094 C 11.492188 12.777344 11.480469 12.503906 11.445312 12.367188 C 11.363281 12.074219 11.15625 11.8125 10.894531 11.679688 C 10.699219 11.582031 10.652344 11.574219 10.273438 11.570312 C 10.085938 11.566406 9.898438 11.570312 9.859375 11.578125 Z M 9.859375 11.578125 "/>
</g>
</svg>
